#!OML:ASF E:\emotionWalksFemale\Project 1\Capture day 1\Session 1\Female1.ASF
:FULLY-SPECIFIED
:DEGREES
1646
root 9.19358 15.2154 30.4193 -4.27891 0.217617 -365.037
lowerback 7.77452 -0.707891 2.18483
upperback -4.72085 -0.622675 0.795232
thorax -9.4054 -0.411536 -0.283173
lowerneck -3.76103 -1.28493 -5.74845
upperneck 8.36558 -2.05913 8.5038
head 3.23868 -0.859526 3.44405
rclavicle -1.3418e-015 -1.15295e-014
rhumerus -41.9446 1.34672 -74.4758
rradius 45.9271
rwrist 13.1286
rhand -11.3659 -54.5692
rfingers 7.12502
rthumb 14.668 -804.03
lclavicle -1.3418e-015 -1.15295e-014
lhumerus -48.369 7.29981 73.7292
lradius 36.1696
lwrist -13.4629
lhand -6.57152 -32.8749
lfingers 7.12502
lthumb 19.2829 -3.81094
rfemur -0.367411 13.8787 36.331
rtibia 23.4557
rfoot -9.65117 -24.1884
rtoes 11.8249
lfemur -22.7133 1.74604 -14.1361
ltibia 59.4528
lfoot -17.8242 6.61801
ltoes -2.07302
1647
root 9.19987 15.2286 30.5633 -4.2217 -0.178765 -364.905
lowerback 7.71523 -0.580583 2.10781
upperback -4.68423 -0.468801 0.731207
thorax -9.32595 -0.333763 -0.33346
lowerneck -3.64897 -1.29049 -5.7464
upperneck 8.14062 -2.06123 8.54117
head 3.1533 -0.863917 3.45447
rclavicle -1.36664e-014 1.19271e-015
rhumerus -41.1661 1.72944 -74.897
rradius 45.9429
rwrist 12.9556
rhand -11.1777 -54.9296
rfingers 7.12502
rthumb 14.8493 -804.378
lclavicle -1.36664e-014 1.19271e-015
lhumerus -49.1421 8.37721 72.7352
lradius 35.0733
lwrist -14.6964
lhand -6.10538 -32.7108
lfingers 7.12502
lthumb 19.731 -3.69221
rfemur 0.628016 14.1032 36.3779
rtibia 22.7609
rfoot -9.52806 -24.1673
rtoes 10.635
lfemur -23.3055 1.08518 -14.3143
ltibia 57.2326
lfoot -19.1318 5.73789
ltoes -1.20402
1648
root 9.20322 15.2351 30.7056 -4.19684 -0.616752 -365.019
lowerback 7.78831 -0.45919 2.2208
upperback -4.69191 -0.288183 0.754002
thorax -9.37443 -0.252908 -0.400413
lowerneck -3.51156 -1.22476 -5.61782
upperneck 7.90958 -1.97348 8.55121
head 3.05398 -0.821749 3.43917
rclavicle -1.38652e-014 -6.75868e-015
rhumerus -40.5092 2.08536 -75.2633
rradius 45.966
rwrist 13.0017
rhand -11.2664 -54.9254
rfingers 7.12502
rthumb 14.7639 -804.38
lclavicle -1.38652e-014 -6.75868e-015
lhumerus -50.1133 9.50395 71.6124
lradius 34.1125
lwrist -16.1322
lhand -5.51719 -32.4237
lfingers 7.12502
lthumb 20.2964 -3.46417
rfemur 1.72459 14.3874 36.7149
rtibia 21.9126
rfoot -9.61748 -24.1549
rtoes 10.4048
lfemur -23.8612 0.509241 -14.1309
ltibia 54.9748
lfoot -19.2899 6.32149
ltoes -2.9186
1649
root 9.206 15.2385 30.843 -4.18164 -0.784288 -365.209
lowerback 7.92201 -0.443106 2.38761
upperback -4.69256 -0.238633 0.797607
thorax -9.45457 -0.238529 -0.454575
lowerneck -3.50705 -1.16511 -5.54149
upperneck 7.82356 -1.89946 8.6323
head 3.02212 -0.780821 3.4539
rclavicle -4.96962e-015 1.27222e-014
rhumerus -39.8516 2.2057 -75.5645
rradius 45.9146
rwrist 13.4612
rhand -11.3445 -55.064
rfingers 7.12502
rthumb 14.6886 -804.524
lclavicle -4.96962e-015 1.27222e-014
lhumerus -51.0861 10.937 70.1917
lradius 33.0962
lwrist -17.7197
lhand -5.16638 -32.9389
lfingers 7.12502
lthumb 20.6335 -4.01563
rfemur 2.84891 14.6574 37.1723
rtibia 20.9401
rfoot -9.47105 -24.4064
rtoes 10.6586
lfemur -24.5101 -0.527532 -13.79
ltibia 52.7299
lfoot -19.0981 6.5031
ltoes -2.2077
1650
root 9.21155 15.2468 30.9649 -3.66229 -1.43279 -365.511
lowerback 7.83828 -0.269858 2.68128
upperback -4.86981 0.0384034 0.890606
thorax -9.59399 -0.122443 -0.563687
lowerneck -3.44167 -1.14712 -5.55651
upperneck 7.65604 -1.87356 8.72003
head 2.96022 -0.768614 3.48377
rclavicle 9.0447e-015 -4.77083e-015
rhumerus -39.1294 2.45125 -75.8355
rradius 45.8466
rwrist 13.9119
rhand -11.3863 -55.1255
rfingers 7.12502
rthumb 14.6484 -804.588
lclavicle 9.0447e-015 -4.77083e-015
lhumerus -52.1091 12.2532 68.781
lradius 32.3439
lwrist -19.086
lhand -4.1445 -32.6762
lfingers 7.12502
lthumb 21.6152 -3.86264
rfemur 3.39991 15.096 37.5531
rtibia 19.8451
rfoot -8.98041 -24.3194
rtoes 10.7854
lfemur -25.6408 -1.409 -13.1624
ltibia 50.4785
lfoot -18.7531 6.50758
ltoes -0.713572
1651
root 9.22273 15.247 31.0916 -3.36821 -1.88911 -365.959
lowerback 7.95757 -0.187406 3.14407
upperback -4.9993 0.225992 1.03136
thorax -9.80414 -0.0602699 -0.702316
lowerneck -3.35364 -1.14567 -5.6098
upperneck 7.46862 -1.86339 8.76099
head 2.88981 -0.767837 3.50502
rclavicle 1.67973e-014 -8.74653e-015
rhumerus -38.5144 3.04352 -76.1692
rradius 45.8172
rwrist 13.7336
rhand -11.4405 -55.2184
rfingers 7.12502
rthumb 14.5961 -804.685
lclavicle 1.67973e-014 -8.74653e-015
lhumerus -53.1416 13.3616 67.5075
lradius 31.7045
lwrist -20.3689
lhand -2.70344 -31.9344
lfingers 7.12502
lthumb 22.9986 -3.28644
rfemur 4.32341 15.4037 38.1265
rtibia 18.495
rfoot -8.4906 -24.2852
rtoes 10.8685
lfemur -26.432 -2.39596 -12.3552
ltibia 48.1147
lfoot -17.8578 6.72165
ltoes -3.13953
1652
root 9.2342 15.2649 31.2317 -3.06568 -2.42718 -366.317
lowerback 7.78543 -0.0642616 3.58692
upperback -5.03221 0.447499 1.13464
thorax -9.73098 0.0220605 -0.875939
lowerneck -3.44377 -1.13194 -5.64686
upperneck 7.38068 -1.83461 8.77525
head 2.87697 -0.753027 3.5159
rclavicle -1.22253e-014 1.63003e-014
rhumerus -37.8325 3.33722 -76.4202
rradius 45.7445
rwrist 13.7936
rhand -11.239 -55.2391
rfingers 7.12502
rthumb 14.7902 -804.691
lclavicle -1.22253e-014 1.63003e-014
lhumerus -54.0299 14.3355 66.3552
lradius 31.1087
lwrist -21.3832
lhand -1.31178 -31.319
lfingers 7.12502
lthumb 24.3333 -2.8437
rfemur 5.32045 15.5999 38.5276
rtibia 17.0389
rfoot -7.78795 -23.9247
rtoes 10.1892
lfemur -27.0047 -3.42138 -11.5808
ltibia 45.7164
lfoot -16.4927 6.97177
ltoes -6.46303
1653
root 9.24769 15.3107 31.4137 -3.04213 -2.91625 -365.872
lowerback 7.03294 0.108428 3.36702
upperback -4.83191 0.597905 0.97131
thorax -9.05625 0.115252 -0.947818
lowerneck -3.49612 -1.08304 -5.57159
upperneck 7.02405 -1.72162 8.40813
head 3.07679 -0.730039 3.76917
rclavicle 2.93207e-015 5.1684e-015
rhumerus -37.103 3.52704 -76.6571
rradius 45.6363
rwrist 14.2068
rhand -11.4349 -55.3025
rfingers 7.12502
rthumb 14.6015 -804.768
lclavicle 2.93207e-015 5.1684e-015
lhumerus -54.9862 14.8373 65.5007
lradius 30.8803
lwrist -21.8665
lhand -0.0439947 -30.9136
lfingers 7.12502
lthumb 25.5482 -2.60677
rfemur 7.04515 15.3256 38.0163
rtibia 15.1882
rfoot -7.35148 -23.3095
rtoes 7.62682
lfemur -26.8631 -5.13945 -11.5916
ltibia 43.2745
lfoot -15.6222 6.91798
ltoes -3.2065
1654
root 9.25768 15.3221 31.5115 -2.70592 -3.34311 -366.078
lowerback 7.51793 0.20807 3.59366
upperback -5.01941 0.787741 0.990592
thorax -9.54075 0.183788 -1.08588
lowerneck -3.43578 -1.05642 -5.39201
upperneck 6.82775 -1.68159 8.32281
head 2.98933 -0.710625 3.70074
rclavicle -1.43622e-014 -3.57812e-015
rhumerus -36.5049 3.92218 -77.0811
rradius 45.6008
rwrist 14.1233
rhand -11.6761 -55.814
rfingers 7.12502
rthumb 14.3691 -805.297
lclavicle -1.43622e-014 -3.57812e-015
lhumerus -55.9246 15.0872 64.7006
lradius 30.7256
lwrist -22.3963
lhand 1.19341 -30.4552
lfingers 7.12502
lthumb 26.733 -2.32377
rfemur 7.99344 15.7241 38.2611
rtibia 13.3491
rfoot -6.70351 -23.2325
rtoes 6.72078
lfemur -27.751 -7.1766 -10.4402
ltibia 40.9772
lfoot -14.1904 6.65097
ltoes 6.65738
1655
root 9.27239 15.3348 31.658 -2.35572 -3.78521 -366.308
lowerback 7.1206 0.314728 3.93386
upperback -5.04523 0.953128 1.01964
thorax -9.3236 0.246581 -1.26713
lowerneck -3.38632 -1.05574 -5.32047
upperneck 6.61037 -1.67277 8.30064
head 2.90317 -0.707801 3.67489
rclavicle -1.12313e-014 -1.74931e-014
rhumerus -35.9537 4.26216 -77.3942
rradius 45.5728
rwrist 14.2867
rhand -10.8741 -56.1479
rfingers 7.12502
rthumb 15.1418 -805.574
lclavicle -1.12313e-014 -1.74931e-014
lhumerus -56.8192 15.3115 63.9694
lradius 30.5025
lwrist -22.8928
lhand 2.22448 -30.1704
lfingers 7.12502
lthumb 27.7193 -2.19355
rfemur 9.2464 15.6811 38.4252
rtibia 11.4524
rfoot -6.20355 -22.6948
rtoes 6.40741
lfemur -28.3185 -9.24336 -9.34659
ltibia 38.8039
lfoot -12.6071 7.48737
ltoes 7.85322
